<svg id="Layer_1" enable-background="new 0 0 512 512" height="512" viewBox="0 0 512 512" width="512" xmlns="http://www.w3.org/2000/svg"><g><g id="XMLID_35_"><g><g id="XMLID_1143_"><g id="XMLID_1144_"><g id="XMLID_1145_"><g id="XMLID_1146_"><g id="XMLID_1163_"><g id="XMLID_1174_"><g id="XMLID_1177_"><g id="XMLID_1178_"><g id="XMLID_1179_"><g id="XMLID_1180_"><g id="XMLID_1181_"><g id="XMLID_1182_"><g id="XMLID_1183_"><g id="XMLID_1937_"><circle cx="256" cy="256" fill="#4793ff" r="256"/></g></g></g></g></g></g></g></g></g></g></g></g></g></g></g></g><path d="m512 256c0-20.516-2.429-40.463-6.987-59.583l-76.963-76.963-10.383 4.38-37.027-35.91s-13.973 22.91-29.807 13.494l-24.863-24.247-1.47 35.329-255.277 251.926 143.996 143.996c13.913 2.341 28.202 3.578 42.781 3.578 141.385 0 256-114.615 256-256z" fill="#424fdd"/><g><g><path d="m459.53 228.442 10.803-6.909-11.591-7.413c-12.54-8.02-15.925-24.844-7.461-37.089l7.823-11.318-12.634-2.194c-14.754-2.563-24.389-16.916-21.174-31.541l2.753-12.524-13.437 2.954c-14.539 3.196-28.828-6.307-31.502-20.951l-2.471-13.534-10.485 7.382c-12.245 8.621-29.207 5.285-37.275-7.331l-6.909-10.803-7.413 11.591c-8.02 12.54-24.844 15.925-37.089 7.461l-11.318-7.823-2.194 12.634c-2.563 14.754-16.915 24.389-31.541 21.174l-12.524-2.753 2.954 13.437c3.196 14.539-6.307 28.828-20.951 31.502l-13.534 2.471 7.382 10.485c8.621 12.245 5.285 29.207-7.331 37.275l-10.803 6.909 11.59 7.413c12.541 8.02 15.925 24.844 7.461 37.089l-7.823 11.318 12.634 2.194c14.754 2.563 24.389 16.916 21.174 31.541l-2.753 12.524 13.437-2.954c14.539-3.196 28.828 6.307 31.502 20.951l2.471 13.535 10.485-7.382c12.245-8.621 29.207-5.285 37.275 7.331l6.909 10.803 7.413-11.591c8.02-12.54 24.844-15.925 37.089-7.461l11.318 7.823 2.194-12.634c2.563-14.754 16.916-24.389 31.541-21.174l12.524 2.753-2.954-13.437c-3.196-14.539 6.307-28.828 20.951-31.502l13.535-2.471-7.382-10.485c-8.621-12.245-5.285-29.208 7.331-37.276z" fill="#fdbf2d"/><g><g><g><path d="m452.2 265.72 7.38 10.48-13.53 2.47c-14.65 2.68-24.15 16.97-20.95 31.51l2.95 13.43-12.52-2.75c-14.63-3.22-28.98 6.42-31.55 21.17l-2.19 12.64-11.32-7.83c-12.24-8.46-29.07-5.08-37.09 7.46l-7.41 11.6v-288.73l6.91 10.8c8.07 12.62 25.03 15.96 37.27 7.33l10.49-7.38 2.47 13.54c2.67 14.64 16.96 24.14 31.5 20.95l13.44-2.96-2.75 12.53c-3.22 14.62 6.42 28.98 21.17 31.54l12.63 2.19-7.82 11.32c-8.46 12.25-5.08 29.07 7.46 37.09l11.59 7.41-10.8 6.91c-12.62 8.07-15.95 25.03-7.33 37.28z" fill="#fd9827"/></g></g></g><g id="XMLID_67_"><g><g id="XMLID_1185_"><g id="XMLID_1186_"><g id="XMLID_1187_"><g id="XMLID_1188_"><g id="XMLID_1189_"><g id="XMLID_1190_"><g id="XMLID_1205_"><g id="XMLID_1451_"><g id="XMLID_1510_"><g id="XMLID_1511_"><g id="XMLID_1512_"><g id="XMLID_1513_"><g id="XMLID_1514_"><g id="XMLID_1515_"><circle cx="325.97" cy="221.533" fill="#ffe05f" r="101.188"/></g></g></g></g></g></g></g></g></g></g></g></g></g></g></g></g><g id="XMLID_74_"><g><g id="XMLID_1452_"><g id="XMLID_1453_"><g id="XMLID_1454_"><g id="XMLID_1455_"><g id="XMLID_1456_"><g id="XMLID_1457_"><g id="XMLID_1458_"><g id="XMLID_1459_"><g id="XMLID_1460_"><g id="XMLID_1475_"><g id="XMLID_1507_"><g id="XMLID_1508_"><g id="XMLID_1509_"><g><path d="m427.16 221.53c0 55.89-45.31 101.19-101.19 101.19v-202.37c55.88 0 101.19 45.3 101.19 101.18z" fill="#f9cb0d"/></g></g></g></g></g></g></g></g></g></g></g></g></g></g></g></g></g><g><path d="m334.985 253.961c-2.612 0-5.183.168-7.716.462.249-2.837.384-5.707.384-8.609 0-53.713-43.543-97.257-97.257-97.257-44.735 0-82.41 30.206-93.757 71.332-3.603-.474-7.277-.722-11.009-.722-46.163 0-83.585 37.422-83.585 83.585s37.422 83.585 83.585 83.585h209.355c36.555 0 66.188-29.634 66.188-66.188 0-36.555-29.633-66.188-66.188-66.188z" fill="#fff"/><g><path d="m401.173 320.146c0 36.557-29.632 66.19-66.19 66.19h-113.374v-237.386c2.895-.266 5.825-.395 8.789-.395 53.715 0 97.257 43.542 97.257 97.257 0 2.904-.137 5.773-.387 8.609 2.535-.292 5.103-.464 7.715-.464 36.558 0 66.19 29.64 66.19 66.189z" fill="#daefec"/></g></g></g></g></svg>