<svg id="Layer_2" enable-background="new 0 0 64 64" height="512" viewBox="0 0 64 64" width="512" xmlns="http://www.w3.org/2000/svg"><path d="m53.623 31.328c-1.696-8.18-8.941-14.328-17.623-14.328-5.87 0-11.068 2.823-14.354 7.171-.531-.111-1.082-.171-1.646-.171-3.392 0-6.285 2.115-7.448 5.096-5.943.716-10.552 5.768-10.552 11.904 0 6.627 5.373 12 12 12h37c6.075 0 11-4.925 11-11 0-5.169-3.571-9.494-8.377-10.672z" fill="#6e83b7"/><g fill="#ffe352"><path d="m43.199 37.304c-9.666 0-17.503-7.836-17.503-17.503 0-2.037.366-3.983 1.005-5.801-6.81 2.396-11.701 8.868-11.701 16.497 0 9.667 7.836 17.503 17.503 17.503 7.63 0 14.102-4.891 16.497-11.701-1.818.639-3.765 1.005-5.801 1.005z"/><path d="m33.59 19.197-3.59-1.197 3.59-1.197c1.045-.348 1.865-1.168 2.214-2.214l1.196-3.589 1.197 3.59c.348 1.045 1.168 1.865 2.214 2.214l3.589 1.196-3.59 1.197c-1.045.348-1.865 1.168-2.214 2.214l-1.196 3.589-1.197-3.59c-.348-1.045-1.168-1.865-2.213-2.213z"/><path d="m45.051 30.684-2.051-.684 2.051-.684c.597-.199 1.066-.668 1.265-1.265l.684-2.051.684 2.051c.199.597.668 1.066 1.265 1.265l2.051.684-2.051.684c-.597.199-1.066.668-1.265 1.265l-.684 2.051-.684-2.051c-.199-.598-.667-1.066-1.265-1.265z"/><path d="m10.538 41.513-1.538-.513 1.538-.513c.448-.149.799-.501.949-.949l.513-1.538.513 1.538c.149.448.501.799.949.949l1.538.513-1.538.513c-.448.149-.799.501-.949.949l-.513 1.538-.513-1.538c-.149-.448-.501-.8-.949-.949z"/><path d="m39.538 53.513-1.538-.513 1.538-.513c.448-.149.799-.501.949-.949l.513-1.538.513 1.538c.149.448.501.799.949.949l1.538.513-1.538.513c-.448.149-.799.501-.949.949l-.513 1.538-.513-1.538c-.149-.448-.501-.8-.949-.949z"/><path d="m14.538 14.513-1.538-.513 1.538-.513c.448-.149.799-.501.949-.949l.513-1.538.513 1.538c.149.448.501.799.949.949l1.538.513-1.538.513c-.448.149-.799.501-.949.949l-.513 1.538-.513-1.538c-.149-.448-.501-.8-.949-.949z"/><path d="m49.538 11.513-1.538-.513 1.538-.513c.448-.149.799-.501.949-.949l.513-1.538.513 1.538c.149.448.501.799.949.949l1.538.513-1.538.513c-.448.149-.799.501-.949.949l-.513 1.538-.513-1.538c-.149-.448-.501-.8-.949-.949z"/></g></svg>