<svg id="Capa_1" enable-background="new 0 0 512 512" height="512" viewBox="0 0 512 512" width="512" xmlns="http://www.w3.org/2000/svg"><g><path d="m473.396 366.853c-93.59 54.034-212.996 22.848-268.362-69.481-56.378-94.015-24.303-218.074 70.619-272.912 2.916-1.685 5.857-3.286 8.821-4.806 9.403-4.822 6.247-19.013-4.311-19.443-47.968-1.953-97.071 9.55-141.491 36.086-119.816 71.58-160.094 227.193-90.153 347.972 70.763 122.199 227.156 164.021 349.484 93.395 43.506-25.118 76.839-61.083 98.57-102.505 4.924-9.385-5.736-19.272-14.64-13.522-2.786 1.8-5.632 3.539-8.537 5.216z" fill="#ffe07d"/><path d="m473.396 366.853c-93.59 54.034-212.996 22.848-268.362-69.481-56.378-94.015-24.303-218.074 70.619-272.912 2.916-1.685 5.857-3.286 8.821-4.806 9.403-4.822 6.247-19.013-4.311-19.443-47.968-1.953-97.071 9.55-141.491 36.086-119.816 71.58-160.094 227.193-90.153 347.972 70.763 122.199 227.156 164.021 349.484 93.395 43.506-25.118 76.839-61.083 98.57-102.505 4.924-9.385-5.736-19.272-14.64-13.522-2.786 1.8-5.632 3.539-8.537 5.216z" fill="#ffe07d"/><g fill="#ffd064"><path d="m473.396 366.853c-81.322 46.951-182.135 29.557-243.491-36.382-53.179 47.116-115.835 71.864-172.56 67.936 74.298 111.186 223.179 147.083 340.657 79.257 43.506-25.118 76.839-61.083 98.57-102.505 4.924-9.385-5.736-19.272-14.64-13.522-2.785 1.8-5.631 3.539-8.536 5.216z"/><path d="m342.612 174.195 4.26-1.826c2.408-1.032 2.408-4.445 0-5.477l-4.26-1.826c-16.391-7.025-28.995-20.723-34.634-37.64l-3.916-11.747c-.905-2.716-4.747-2.716-5.653 0l-3.916 11.747c-5.639 16.917-18.243 30.616-34.634 37.64l-4.26 1.826c-2.407 1.032-2.407 4.445 0 5.477l4.26 1.826c16.391 7.025 28.995 20.723 34.634 37.64l3.916 11.747c.905 2.716 4.747 2.716 5.653 0l3.916-11.747c5.639-16.917 18.243-30.616 34.634-37.64z"/><path d="m445.671 280.454 2.13-.913c2.408-1.032 2.408-4.445 0-5.477l-2.13-.913c-13.113-5.62-23.196-16.578-27.707-30.112l-2.567-7.702c-.905-2.716-4.747-2.716-5.653 0l-2.567 7.702c-4.511 13.534-14.595 24.493-27.707 30.112l-2.13.913c-2.408 1.032-2.408 4.445 0 5.477l2.13.913c13.112 5.62 23.196 16.578 27.707 30.112l2.567 7.702c.905 2.716 4.747 2.716 5.653 0l2.567-7.702c4.511-13.534 14.594-24.492 27.707-30.112z"/><path d="m455.084 130.749c2.408-1.032 2.408-4.445 0-5.477-9.834-4.215-17.397-12.434-20.78-22.584l-1.219-3.657c-.905-2.716-4.747-2.716-5.653 0l-1.219 3.657c-3.383 10.15-10.946 18.369-20.78 22.584-2.408 1.032-2.408 4.445 0 5.477 9.834 4.215 17.397 12.434 20.78 22.584l1.219 3.657c.905 2.716 4.747 2.716 5.653 0l1.219-3.657c3.383-10.15 10.946-18.369 20.78-22.584z"/></g></g></svg>